<svg fill="#000000" width="64px" height="64px" viewBox="0 0 24 24" id="cloud-check" data-name="Flat Color" xmlns="http://www.w3.org/2000/svg" class="icon flat-color"><g id="SVGRepo_bgCarrier" stroke-width="0"></g><g id="SVGRepo_tracerCarrier" stroke-linecap="round" stroke-linejoin="round"></g><g id="SVGRepo_iconCarrier"><path id="primary" d="M18.68,10.06a6,6,0,0,0-11.41.15A3.85,3.85,0,0,0,6,10a4,4,0,0,0,0,8H18a4,4,0,0,0,.68-7.94Z" style="fill: #fffff;"></path><path id="secondary" d="M15,14a1,1,0,0,1-.71-.29l-2-2a1,1,0,0,1,1.42-1.42L15,11.59l4.29-4.3a1,1,0,1,1,1.42,1.42l-5,5A1,1,0,0,1,15,14Z" style="fill: #2ca9bc;"></path></g></svg>